<?xml version="1.0" standalone="no"?><!DOCTYPE svg PUBLIC "-//W3C//DTD SVG 1.1//EN" "http://www.w3.org/Graphics/SVG/1.1/DTD/svg11.dtd"><svg class="icon" width="200px" height="200.00px" viewBox="0 0 1024 1024" version="1.1" xmlns="http://www.w3.org/2000/svg"><path d="M514.858905 0c-8.918077 0-26.7969 7.148416-50.094841 53.126688C408.738062 153.035317 320.24002 316.095336 320.24002 316.095336S158.434536 347.480689 54.063172 367.191706C2.858905 375.609071-13.867822 421.16436 12.118343 453.226486c73.435453 88.276591 203.366281 234.036598 203.366281 234.036598s-21.207101 160.056838-33.154763 269.313396c-3.88299 41.959932 18.262855 66.027676 49.156096 66.027676 10.070173 0 21.07909-2.580197 32.429369-7.909786 87.601967-43.398075 220.861072-109.764137 251.028919-124.737742 29.655805 15.142798 161.592133 82.566318 248.212684 126.091288 11.222269 5.371886 22.145845 7.952084 32.088007 7.952084 30.551879 0 52.441703-24.025445 48.558713-66.069974-11.776981-109.425751-32.770731-269.736379-32.770731-269.736379s128.43737-145.886902 201.019418-234.290388c25.687474-32.146722 9.174098-77.74431-41.432786-86.203974-103.176598-19.753315-263.147262-51.180966-263.147262-51.180966s-87.473956-163.271511-142.859905-263.307035c-19.585632-36.926432-34.56288-48.769962-44.03567-52.026932C519.68064 0.719071 517.76048 0 514.858905 0L514.858905 0z" /></svg>