<?xml version="1.0" standalone="no"?><!DOCTYPE svg PUBLIC "-//W3C//DTD SVG 1.1//EN" "http://www.w3.org/Graphics/SVG/1.1/DTD/svg11.dtd"><svg class="icon" width="200px" height="200.00px" viewBox="0 0 1024 1024" version="1.1" xmlns="http://www.w3.org/2000/svg"><path d="M918.3 306.6c-11.1-65.3-23.6-132-38.9-196-4.2-16.7-25-19.5-38.9-12.5-54.2 38.9-111.2 75-169.5 108.4-27.8 15.3 0 55.6 29.2 40.3 41.7-23.6 69.5-44.5 100.1-69.5-48.6 122.3-65.3 257.1-161.2 355.8-19.5 19.5-43.1 38.9-69.5 52.8 0-1.4 1.4-1.4 1.4-1.4h-1.4c8.3-26.4 13.9-55.6 15.3-82 9.7-200.1-172.3-364.1-351.6-216.8-161.4 133.5 19.3 376.7 187.4 389.2 12.5 1.4 25 1.4 37.5 0v1.4h2.8c-77.8 111.2-198.7 197.3-333.5 202.9-32 2.8-27.8 52.8 4.2 50C283.1 920.9 455.5 807 536.1 661c1.4 0 1.4-1.4 2.8-1.4 2.8-1.4 2.8-2.8 2.8-4.2 55.6-20.8 107-59.8 147.3-102.8 93.1-105.6 109.8-239 161.2-364.1 8.3 41.7 9.7 73.7 18.1 123.7 4.1 30.6 54.1 26.4 50-5.6zM504.1 606.8c-1.4 1.4-2.8 4.2-4.2 8.3l-4.2 1.4-2.8 2.8c-30.6 8.3-65.3 8.3-97.3 2.8C292.9 599.9 191.4 497 222 394.2c23.6-80.6 93.1-126.5 169.5-115.3 62.5 8.3 90.3 44.5 116.7 100.1 36.2 75 33.4 154.2-4.1 227.8z" fill="#515151" /></svg>